<?xml version="1.0" standalone="no"?>
<!DOCTYPE svg PUBLIC "-//W3C//DTD SVG 20010904//EN"
 "http://www.w3.org/TR/2001/REC-SVG-20010904/DTD/svg10.dtd">
<svg version="1.0" xmlns="http://www.w3.org/2000/svg"
 width="650.000000pt" height="272.000000pt" viewBox="0 0 650.000000 272.000000"
 preserveAspectRatio="xMidYMid meet">

<g transform="translate(0.000000,272.000000) scale(0.100000,-0.100000)"
fill="#000000" stroke="none">
<path d="M2708 2376 c-89 -33 -133 -88 -151 -189 -31 -182 64 -317 223 -317
64 0 90 9 127 43 l22 20 10 -27 c8 -20 17 -26 41 -26 l30 0 0 135 0 135 -100
0 -100 0 0 -28 c0 -41 31 -65 75 -60 40 5 41 2 18 -46 -11 -23 -30 -42 -57
-55 -37 -17 -45 -17 -86 -5 -75 22 -117 98 -108 194 10 97 58 150 138 150 49
0 75 -12 112 -51 21 -23 36 -29 68 -29 38 0 41 2 34 23 -18 60 -45 92 -106
123 -43 22 -143 28 -190 10z"/>
<path d="M5590 2335 l0 -35 50 0 c46 0 50 2 50 23 0 33 -19 47 -62 47 -37 0
-38 -1 -38 -35z"/>
<path d="M1280 2340 c-122 -64 -145 -231 -43 -320 61 -54 127 -64 193 -30 43
22 47 28 28 50 -7 8 -4 7 7 -2 20 -17 22 -16 49 25 25 38 27 49 23 108 -4 71
-37 135 -63 125 -8 -3 -11 0 -8 9 8 19 -61 52 -111 53 -22 1 -56 -7 -75 -18z"/>
<path d="M3295 2251 c-47 -21 -70 -45 -59 -62 4 -8 3 -9 -4 -5 -18 11 -35 -72
-29 -140 6 -75 26 -112 81 -148 36 -25 48 -27 103 -23 69 5 114 30 138 77 21
40 20 40 -26 40 -26 0 -50 -7 -66 -20 -14 -11 -39 -20 -55 -20 -36 0 -78 40
-78 75 l0 25 125 0 125 0 0 43 c0 132 -132 214 -255 158z m136 -78 c5 -5 11
-22 15 -38 l6 -30 -76 3 c-67 3 -76 6 -76 22 0 11 10 29 23 40 17 17 30 21 61
17 21 -3 42 -9 47 -14z"/>
<path d="M3830 2248 c-76 -39 -82 -56 -88 -222 l-5 -146 52 0 51 0 0 135 c0
122 2 137 20 155 24 24 67 26 98 4 21 -14 22 -22 22 -135 0 -66 5 -129 10
-140 8 -14 21 -19 51 -19 l41 0 -4 149 c-4 172 -12 193 -89 223 -61 23 -107
22 -159 -4z"/>
<path d="M4364 2256 c-73 -33 -113 -119 -100 -217 15 -114 69 -164 175 -164
53 0 72 5 99 23 50 36 72 89 71 169 0 89 -16 129 -62 166 -30 25 -49 31 -95
34 -34 2 -69 -2 -88 -11z m122 -89 c52 -45 40 -194 -18 -213 -11 -3 -35 -3
-53 0 -27 5 -36 13 -45 42 -7 20 -10 63 -8 97 4 47 9 64 27 78 31 25 64 24 97
-4z"/>
<path d="M4907 2256 c-84 -30 -97 -62 -97 -241 l0 -135 50 0 50 0 0 145 c0
159 2 165 67 165 62 0 68 -14 71 -169 l4 -141 44 0 44 0 0 135 c0 122 2 137
20 155 26 26 81 26 103 2 14 -15 17 -41 17 -140 0 -136 7 -152 66 -152 l34 0
0 135 c0 95 -4 146 -14 170 -29 68 -128 101 -220 72 -45 -15 -56 -15 -91 -2
-50 18 -99 18 -148 1z"/>
<path d="M5958 2254 c-22 -9 -48 -32 -64 -57 -25 -37 -28 -51 -29 -122 0 -109
27 -160 99 -190 74 -31 162 -12 211 47 38 45 33 58 -20 58 -25 0 -45 -4 -45
-8 0 -13 -47 -32 -76 -32 -14 0 -36 11 -49 25 -22 21 -25 33 -25 95 0 62 3 74
25 95 30 31 75 33 100 5 13 -15 31 -20 67 -20 26 0 48 3 48 8 0 4 -9 22 -20
40 -38 63 -142 89 -222 56z"/>
<path d="M5590 2070 l0 -190 50 0 50 0 0 174 c0 195 -3 206 -66 206 l-34 0 0
-190z"/>
<path d="M1815 2179 c3 -4 -3 -5 -13 -2 -12 3 -31 -7 -52 -29 -19 -18 -30 -26
-26 -18 4 8 -9 -3 -29 -24 -42 -47 -128 -213 -121 -233 4 -9 1 -11 -6 -7 -8 5
-9 2 -5 -10 4 -10 3 -15 -3 -11 -6 3 -10 0 -10 -9 0 -8 -16 -35 -35 -61 -20
-25 -33 -51 -29 -58 4 -7 4 -9 -1 -5 -11 11 -36 -12 -28 -25 3 -6 1 -7 -5 -3
-15 9 -55 -18 -44 -29 4 -5 1 -5 -6 -1 -7 4 -20 2 -29 -5 -8 -8 -38 -13 -68
-13 -45 1 -57 6 -79 29 -14 15 -28 36 -31 46 -4 11 -9 17 -13 15 -4 -2 -8 6
-8 17 -2 38 -44 168 -62 193 -68 92 -199 -69 -147 -180 16 -34 46 -59 70 -61
19 0 93 -59 114 -90 24 -35 31 -140 12 -188 -6 -16 -8 -33 -5 -39 4 -7 2 -8
-4 -4 -7 4 -12 1 -12 -7 0 -8 -9 -22 -20 -32 -16 -14 -17 -22 -8 -39 8 -16 8
-19 -2 -9 -9 8 -24 2 -64 -28 -28 -21 -58 -39 -66 -39 -27 -1 -97 -44 -123
-75 -86 -104 -45 -299 62 -291 20 1 41 11 51 24 10 12 21 18 25 14 5 -4 5 1 2
10 -4 11 -2 17 6 15 7 -1 11 4 10 11 -2 6 2 12 7 12 6 0 23 26 38 58 15 31 29
59 32 62 7 7 32 64 30 69 -1 2 4 7 12 12 7 5 13 14 13 21 0 7 5 15 10 16 6 2
15 7 20 12 6 4 24 11 42 14 40 9 72 -8 138 -70 28 -26 44 -44 37 -40 -8 5 -3
-9 11 -30 66 -105 127 -306 146 -482 12 -109 41 -181 96 -234 44 -42 108 -64
156 -52 19 4 40 9 47 10 47 9 149 112 138 140 -3 9 -1 12 4 9 15 -9 18 71 5
123 -5 21 -8 22 -23 10 -15 -11 -16 -11 -4 3 13 17 7 49 -9 49 -5 0 -8 4 -6 9
6 23 -164 147 -186 135 -7 -4 -9 -4 -5 1 7 7 -39 43 -52 41 -3 -1 -20 13 -37
31 -17 17 -34 29 -38 25 -4 -4 -5 -2 -3 4 2 6 -16 32 -39 58 -23 25 -40 46
-38 46 3 0 -9 22 -25 49 -17 27 -42 82 -57 123 -23 65 -27 89 -28 215 -1 79 1
140 3 138 3 -3 18 21 34 53 16 31 41 69 55 84 14 14 22 31 19 37 -5 7 -1 8 10
4 14 -5 16 -3 11 11 -4 9 -3 15 2 11 14 -8 42 6 34 18 -3 5 -2 7 4 4 5 -3 28
6 51 21 23 16 69 41 104 57 35 17 68 37 75 45 7 8 13 11 13 6 0 -5 7 -3 15 4
8 7 12 17 8 23 -4 6 -1 7 7 2 12 -7 89 63 91 85 1 6 2 14 3 19 0 5 4 13 9 17
27 27 -10 126 -57 155 -30 19 -131 25 -121 8z m-775 -243 c0 -2 -7 -7 -16 -10
-8 -3 -12 -2 -9 4 6 10 25 14 25 6z m314 -762 c5 -14 4 -15 -9 -4 -17 14 -19
20 -6 20 5 0 12 -7 15 -16z m-284 -99 c0 -5 -5 -3 -10 5 -5 8 -10 20 -10 25 0
6 5 3 10 -5 5 -8 10 -19 10 -25z m-70 -119 c0 -2 -8 -10 -17 -17 -16 -13 -17
-12 -4 4 13 16 21 21 21 13z"/>
<path d="M463 1790 c-129 -27 -211 -121 -234 -271 -29 -189 36 -352 168 -419
41 -21 62 -25 143 -25 110 1 169 21 234 83 33 32 76 106 76 133 0 5 -33 9 -74
9 -70 0 -76 -2 -116 -35 -87 -72 -189 -55 -239 42 -6 12 -11 35 -11 52 l0 31
225 0 225 0 1 23 c8 187 -60 316 -190 362 -55 19 -154 26 -208 15z m135 -155
c41 -17 68 -53 74 -100 l3 -30 -132 -3 -133 -3 0 29 c0 41 39 95 80 109 47 16
63 16 108 -2z"/>
<path d="M1985 1777 c-70 -19 -149 -61 -175 -94 -54 -69 -54 -70 -58 -475 l-3
-378 61 0 c51 0 65 4 85 25 14 13 25 32 26 42 0 10 1 71 1 136 1 110 10 150
24 112 10 -25 85 -63 141 -71 86 -11 146 10 207 71 77 76 101 147 100 290 0
90 -5 121 -23 169 -46 116 -127 172 -263 181 -44 3 -93 -1 -123 -8z m164 -164
c46 -34 71 -98 71 -183 0 -131 -55 -206 -151 -204 -42 0 -55 5 -84 34 -44 43
-59 87 -59 176 1 131 65 212 158 200 22 -2 51 -13 65 -23z"/>
<path d="M3055 1780 c-165 -41 -247 -190 -224 -411 9 -91 33 -151 83 -207 134
-148 437 -104 513 75 7 18 13 37 13 43 0 6 -32 10 -80 10 -75 0 -81 -2 -115
-32 -90 -78 -235 -20 -235 94 l0 28 226 0 227 0 -7 85 c-15 179 -82 274 -219
311 -56 15 -133 17 -182 4z m144 -151 c33 -12 71 -69 71 -109 0 -19 -6 -20
-130 -20 -130 0 -130 0 -130 24 0 30 39 87 70 103 31 16 77 16 119 2z"/>
<path d="M3665 1775 c-27 -8 -53 -14 -57 -15 -4 0 -24 -15 -44 -32 -92 -81
-99 -220 -16 -290 37 -31 118 -63 211 -84 87 -19 119 -33 135 -56 32 -45 -20
-88 -104 -88 -70 0 -116 23 -132 66 l-12 34 -89 0 -89 0 7 -42 c11 -72 53
-129 119 -162 54 -28 66 -30 170 -31 168 0 256 38 297 130 24 52 24 139 1 185
-23 46 -111 91 -235 119 -111 26 -157 51 -157 85 0 30 19 45 64 53 60 9 105
-5 147 -48 37 -38 40 -39 109 -39 76 0 77 1 60 59 -14 51 -56 105 -98 128 -75
42 -195 53 -287 28z"/>
<path d="M4300 1780 c-114 -24 -180 -103 -180 -215 0 -113 58 -160 263 -210
116 -29 147 -46 147 -80 0 -38 -43 -65 -107 -65 -75 0 -120 21 -138 65 l-15
35 -85 0 c-81 0 -85 -1 -85 -22 0 -78 53 -152 135 -190 67 -30 241 -32 324 -4
125 43 188 184 131 296 -25 49 -107 91 -234 120 -99 23 -152 44 -160 66 -11
28 15 63 51 70 64 12 111 -1 158 -45 43 -40 47 -41 115 -41 l70 0 -7 33 c-16
83 -78 153 -155 176 -55 17 -173 22 -228 11z"/>
<path d="M5197 1776 c-108 -29 -176 -108 -203 -236 -27 -127 0 -286 61 -366
14 -19 54 -47 92 -66 59 -29 75 -32 152 -32 105 1 173 26 227 86 83 93 111
260 69 414 -46 165 -214 249 -398 200z m159 -152 c49 -24 84 -99 84 -183 0
-146 -50 -220 -147 -221 -88 0 -136 79 -135 226 1 145 93 228 198 178z"/>
<path d="M5851 1775 c-85 -24 -142 -64 -171 -120 -25 -48 -25 -54 -28 -307
l-3 -258 85 0 c62 0 86 4 86 12 0 7 1 115 3 240 2 210 3 229 22 254 44 58 141
63 194 9 l26 -25 5 -225 c5 -214 6 -226 27 -246 18 -18 32 -22 79 -20 32 1 59
3 61 4 1 2 3 113 3 248 1 266 -5 307 -56 360 -67 70 -224 104 -333 74z"/>
<path d="M2644 1750 c-111 -36 -184 -124 -204 -247 -15 -90 -13 -413 3 -414
15 -1 138 -1 155 0 9 1 12 47 13 194 0 122 4 204 12 226 18 52 56 74 132 79
l65 4 0 89 0 89 -57 -1 c-32 0 -85 -9 -119 -19z"/>
<path d="M4760 1430 c0 -265 3 -340 13 -341 25 -1 123 -1 140 0 16 1 17 23 17
319 l0 319 -23 21 c-19 18 -35 22 -85 22 l-62 0 0 -340z"/>
<path d="M1683 255 c0 -26 151 -31 231 -8 44 12 -14 23 -120 22 -85 -1 -111
-4 -111 -14z"/>
</g>
</svg>
